# xmcd
#
# Track frame offsets:
#	150
#	17610
#	33521
#	51034
#	67359
#	86835
#	103865
#	118791
#	135678
#	149176
#	164924
#	181461
#	198783
#	215746
#	234009
#	248837
#	266568
#	282159
#	302158
#	319629
#	336420
#
# Disc length: 4659 seconds
# Revision: 0
# Processed by: cddbd v1.5.2PL0 Copyright (c) Steve Scherf et al.
# Submitted via: dBpowerAMP V12.0
#
DISCID=4c123115
DTITLE=Petra Durst-Benning - Solange Die Welt Noch Schläft 6
DYEAR=1900
DGENRE=Unbekanntes Genre
TTITLE0=106 
TTITLE1=107
TTITLE2=108
TTITLE3=109
TTITLE4=110
TTITLE5=111
TTITLE6=112
TTITLE7=113
TTITLE8=114
TTITLE9=115
TTITLE10=116
TTITLE11=117
TTITLE12=118
TTITLE13=119
TTITLE14=120
TTITLE15=121
TTITLE16=122
TTITLE17=123
TTITLE18=124
TTITLE19=125
TTITLE20=126
EXTD=
EXTT0=
EXTT1=
EXTT2=
EXTT3=
EXTT4=
EXTT5=
EXTT6=
EXTT7=
EXTT8=
EXTT9=
EXTT10=
EXTT11=
EXTT12=
EXTT13=
EXTT14=
EXTT15=
EXTT16=
EXTT17=
EXTT18=
EXTT19=
EXTT20=
PLAYORDER=
